<svg width="26" height="26" viewBox="0 0 26 26" fill="none" xmlns="http://www.w3.org/2000/svg">
<g clip-path="url(#clip0_320_5553)">
<path d="M22.3226 20.1977C21.882 20.198 21.4512 20.0677 21.0847 19.8231C20.7182 19.5786 20.4325 19.2308 20.2636 18.8238C20.0948 18.4169 20.0505 17.969 20.1362 17.5368C20.222 17.1046 20.434 16.7076 20.7454 16.396C21.0569 16.0843 21.4537 15.872 21.8858 15.7859C22.3179 15.6999 22.7659 15.7439 23.173 15.9124C23.58 16.0809 23.928 16.3664 24.1728 16.7327C24.4176 17.0991 24.5483 17.5298 24.5483 17.9703C24.548 18.5607 24.3135 19.1268 23.8962 19.5444C23.4789 19.962 22.9129 20.197 22.3226 20.1977ZM22.3226 16.5555C22.0427 16.5552 21.769 16.6379 21.5361 16.7932C21.3032 16.9484 21.1216 17.1693 21.0143 17.4278C20.907 17.6863 20.8787 17.9708 20.9331 18.2454C20.9875 18.5199 21.1221 18.7722 21.32 18.9702C21.5178 19.1682 21.7698 19.3032 22.0443 19.3579C22.3188 19.4126 22.6034 19.3847 22.862 19.2776C23.1206 19.1706 23.3417 18.9893 23.4972 18.7566C23.6528 18.5239 23.7358 18.2502 23.7358 17.9703C23.7357 17.5954 23.5868 17.2359 23.3218 16.9706C23.0569 16.7054 22.6975 16.5561 22.3226 16.5555Z" fill="white"/>
<path d="M10.5852 20.1977C10.1446 20.1981 9.71375 20.0678 9.34718 19.8234C8.98062 19.5789 8.6948 19.2312 8.52588 18.8242C8.35697 18.4173 8.31255 17.9693 8.39825 17.5371C8.48394 17.1049 8.69591 16.7079 9.00732 16.3961C9.31873 16.0844 9.7156 15.8721 10.1477 15.786C10.5798 15.6999 11.0278 15.7438 11.4349 15.9124C11.842 16.0809 12.19 16.3663 12.4349 16.7327C12.6797 17.099 12.8104 17.5297 12.8104 17.9703C12.8099 18.5606 12.5754 19.1265 12.1583 19.5441C11.7412 19.9616 11.1754 20.1967 10.5852 20.1977ZM10.5852 16.5555C10.3053 16.5551 10.0315 16.6377 9.79858 16.7929C9.56563 16.9481 9.38395 17.1689 9.27653 17.4274C9.16912 17.6859 9.14079 17.9704 9.19513 18.245C9.24948 18.5196 9.38406 18.7719 9.58184 18.97C9.77962 19.1681 10.0317 19.3031 10.3062 19.3578C10.5807 19.4126 10.8653 19.3847 11.124 19.2777C11.3826 19.1707 11.6037 18.9893 11.7593 18.7566C11.9148 18.5239 11.9979 18.2503 11.9979 17.9703C11.9976 17.5956 11.8487 17.2362 11.5839 16.971C11.3191 16.7058 10.96 16.5564 10.5852 16.5555Z" fill="white"/>
<path d="M25.253 18.3766H24.142C24.0343 18.3766 23.931 18.3338 23.8548 18.2576C23.7786 18.1814 23.7358 18.0781 23.7358 17.9703C23.7358 17.8626 23.7786 17.7593 23.8548 17.6831C23.931 17.6069 24.0343 17.5641 24.142 17.5641H25.1382V15.4099C25.1379 15.1186 25.0633 14.8323 24.9215 14.5779L22.7223 10.6351C22.7035 10.6014 22.6761 10.5734 22.6429 10.5539C22.6097 10.5344 22.5718 10.5241 22.5333 10.524H19.5363V17.5657H20.5037C20.6114 17.5657 20.7147 17.6085 20.7909 17.6847C20.8671 17.7609 20.9099 17.8642 20.9099 17.972C20.9099 18.0797 20.8671 18.183 20.7909 18.2592C20.7147 18.3354 20.6114 18.3782 20.5037 18.3782H19.13C19.0223 18.3782 18.9189 18.3354 18.8427 18.2592C18.7666 18.183 18.7238 18.0797 18.7238 17.972V10.1178C18.7238 10.0101 18.7666 9.90672 18.8427 9.83054C18.9189 9.75435 19.0223 9.71155 19.13 9.71155H22.5333C22.7166 9.71146 22.8965 9.76031 23.0546 9.85306C23.2127 9.94581 23.3431 10.0791 23.4325 10.2391L25.6311 14.1825C25.8401 14.5578 25.9499 14.9803 25.9501 15.4099V17.6795C25.9498 17.8643 25.8763 18.0414 25.7456 18.1721C25.6149 18.3028 25.4378 18.3763 25.253 18.3766Z" fill="white"/>
<path d="M8.76573 18.3766H4.87061C4.76286 18.3766 4.65953 18.3337 4.58334 18.2576C4.50716 18.1814 4.46436 18.078 4.46436 17.9703V14.846C4.46436 14.7382 4.50716 14.6349 4.58334 14.5587C4.65953 14.4825 4.76286 14.4397 4.87061 14.4397C4.97835 14.4397 5.08168 14.4825 5.15787 14.5587C5.23405 14.6349 5.27686 14.7382 5.27686 14.846V17.5641H8.76573C8.87348 17.5641 8.97681 17.6069 9.05299 17.683C9.12918 17.7592 9.17198 17.8626 9.17198 17.9703C9.17198 18.078 9.12918 18.1814 9.05299 18.2576C8.97681 18.3337 8.87348 18.3766 8.76573 18.3766Z" fill="white"/>
<path d="M4.87061 13.4046C4.76286 13.4046 4.65953 13.3618 4.58334 13.2856C4.50716 13.2094 4.46436 13.1061 4.46436 12.9984V10.2705C4.46436 10.1628 4.50716 10.0595 4.58334 9.98328C4.65953 9.90709 4.76286 9.86429 4.87061 9.86429C4.97835 9.86429 5.08168 9.90709 5.15787 9.98328C5.23405 10.0595 5.27686 10.1628 5.27686 10.2705V13C5.27643 13.1074 5.23344 13.2104 5.1573 13.2862C5.08115 13.362 4.97807 13.4046 4.87061 13.4046Z" fill="white"/>
<path d="M19.13 18.3766H12.4041C12.2964 18.3766 12.193 18.3338 12.1168 18.2576C12.0407 18.1814 11.9979 18.0781 11.9979 17.9703C11.9979 17.8626 12.0407 17.7592 12.1168 17.6831C12.193 17.6069 12.2964 17.5641 12.4041 17.5641H18.7237V6.93604H5.27686V8.60924C5.27686 8.71699 5.23405 8.82032 5.15787 8.89651C5.08168 8.97269 4.97835 9.01549 4.87061 9.01549C4.76286 9.01549 4.65953 8.97269 4.58334 8.89651C4.50716 8.82032 4.46436 8.71699 4.46436 8.60924V6.86128C4.46464 6.66562 4.54254 6.47805 4.68095 6.33974C4.81936 6.20143 5.00698 6.12368 5.20265 6.12354H18.7985C18.9941 6.12382 19.1815 6.20164 19.3198 6.33993C19.4581 6.47823 19.5359 6.66571 19.5362 6.86128V17.9703C19.5362 18.0781 19.4934 18.1814 19.4172 18.2576C19.3411 18.3338 19.2377 18.3766 19.13 18.3766Z" fill="white"/>
<path d="M6.47668 15.2522H1.32056C1.21281 15.2522 1.10948 15.2094 1.03329 15.1332C0.957108 15.0571 0.914307 14.9537 0.914307 14.846C0.914307 14.7382 0.957108 14.6349 1.03329 14.5587C1.10948 14.4825 1.21281 14.4397 1.32056 14.4397H6.47668C6.58442 14.4397 6.68775 14.4825 6.76394 14.5587C6.84012 14.6349 6.88293 14.7382 6.88293 14.846C6.88293 14.9537 6.84012 15.0571 6.76394 15.1332C6.68775 15.2094 6.58442 15.2522 6.47668 15.2522Z" fill="white"/>
<path d="M10.5852 13.4046H3.39026C3.28251 13.4046 3.17918 13.3618 3.103 13.2856C3.02681 13.2094 2.98401 13.1061 2.98401 12.9984C2.98401 12.8906 3.02681 12.7873 3.103 12.7111C3.17918 12.6349 3.28251 12.5921 3.39026 12.5921H10.5852C10.693 12.5921 10.7963 12.6349 10.8725 12.7111C10.9487 12.7873 10.9915 12.8906 10.9915 12.9984C10.9915 13.1061 10.9487 13.2094 10.8725 13.2856C10.7963 13.3618 10.693 13.4046 10.5852 13.4046Z" fill="white"/>
<path d="M3.16656 11.2596H0.356934C0.249189 11.2596 0.145858 11.2168 0.0696715 11.1406C-0.00651519 11.0644 -0.0493164 10.9611 -0.0493164 10.8534C-0.0493164 10.7456 -0.00651519 10.6423 0.0696715 10.5661C0.145858 10.4899 0.249189 10.4471 0.356934 10.4471H3.16656C3.2743 10.4471 3.37763 10.4899 3.45382 10.5661C3.53001 10.6423 3.57281 10.7456 3.57281 10.8534C3.57281 10.9611 3.53001 11.0644 3.45382 11.1406C3.37763 11.2168 3.2743 11.2596 3.16656 11.2596Z" fill="white"/>
<path d="M7.67166 9.01551H2.71216C2.60441 9.01551 2.50108 8.9727 2.4249 8.89652C2.34871 8.82033 2.30591 8.717 2.30591 8.60925C2.30591 8.50151 2.34871 8.39818 2.4249 8.32199C2.50108 8.2458 2.60441 8.203 2.71216 8.203H7.67166C7.7794 8.203 7.88273 8.2458 7.95892 8.32199C8.03511 8.39818 8.07791 8.50151 8.07791 8.60925C8.07791 8.717 8.03511 8.82033 7.95892 8.89652C7.88273 8.9727 7.7794 9.01551 7.67166 9.01551Z" fill="white"/>
</g>
<defs>
<clipPath id="clip0_320_5553">
<rect width="26" height="26" fill="white"/>
</clipPath>
</defs>
</svg>
