<svg width="16" height="16" viewBox="0 0 16 16" fill="none" xmlns="http://www.w3.org/2000/svg">
<path d="M3.8 8C3.8 8.7732 3.1732 9.4 2.4 9.4C1.6268 9.4 1 8.7732 1 8C1 7.2268 1.6268 6.6 2.4 6.6C3.1732 6.6 3.8 7.2268 3.8 8Z" stroke="white"/>
<path d="M9.4 8C9.4 8.7732 8.7732 9.4 8 9.4C7.22681 9.4 6.6 8.7732 6.6 8C6.6 7.2268 7.22681 6.6 8 6.6C8.7732 6.6 9.4 7.2268 9.4 8Z" stroke="white"/>
<path d="M15 8C15 8.7732 14.3732 9.4 13.6 9.4C12.8268 9.4 12.2 8.7732 12.2 8C12.2 7.2268 12.8268 6.6 13.6 6.6C14.3732 6.6 15 7.2268 15 8Z" stroke="white"/>
<path d="M3.8 2.4C3.8 3.1732 3.1732 3.8 2.4 3.8C1.6268 3.8 1 3.1732 1 2.4C1 1.6268 1.6268 1 2.4 1C3.1732 1 3.8 1.6268 3.8 2.4Z" stroke="white"/>
<path d="M9.4 2.4C9.4 3.1732 8.7732 3.8 8.00001 3.8C7.22681 3.8 6.6 3.1732 6.6 2.4C6.6 1.6268 7.22681 1 8.00001 1C8.7732 1 9.4 1.6268 9.4 2.4Z" stroke="white"/>
<path d="M15 2.4C15 3.1732 14.3732 3.8 13.6 3.8C12.8268 3.8 12.2 3.1732 12.2 2.4C12.2 1.6268 12.8268 1 13.6 1C14.3732 1 15 1.6268 15 2.4Z" stroke="white"/>
<path d="M3.8 13.6C3.8 14.3732 3.1732 15 2.4 15C1.6268 15 1 14.3732 1 13.6C1 12.8268 1.6268 12.2 2.4 12.2C3.1732 12.2 3.8 12.8268 3.8 13.6Z" stroke="white"/>
<path d="M9.40001 13.6C9.40001 14.3732 8.7732 15 8.00001 15C7.22681 15 6.6 14.3732 6.6 13.6C6.6 12.8268 7.22681 12.2 8.00001 12.2C8.7732 12.2 9.40001 12.8268 9.40001 13.6Z" stroke="white"/>
<path d="M15 13.6C15 14.3732 14.3732 15 13.6 15C12.8268 15 12.2 14.3732 12.2 13.6C12.2 12.8268 12.8268 12.2 13.6 12.2C14.3732 12.2 15 12.8268 15 13.6Z" stroke="white"/>
</svg>
